<?xml version="1.0" encoding="utf-8"?>
<!-- Generator: Adobe Illustrator 25.4.1, SVG Export Plug-In . SVG Version: 6.00 Build 0)  -->
<svg version="1.1" id="Layer_1" xmlns="http://www.w3.org/2000/svg" xmlns:xlink="http://www.w3.org/1999/xlink" x="0px" y="0px"
	 viewBox="0 0 512 512" style="enable-background:new 0 0 512 512;" xml:space="preserve">
<style type="text/css">
	.st0{fill:#EC2126;}
	.st1{fill:#EC2025;}
</style>
<path class="st0" d="M496.8,40c0,33.8,0,67.7,0,102.2c-161,0-321,0-481.7,0c0-34.6,0-68.4,0-102.2C175.7,40,336.2,40,496.8,40z"/>
<path class="st1" d="M460.7,204.1C379.9,259,301,312.6,222.2,366.1c0.3,0.8,0.5,1.7,0.8,2.5c90.7,0,181.5,0,273.2,0
	c0,35,0,68.7,0,103.5c-160.1,0-320.2,0-481.9,0c0-33-0.2-65.5,0.3-98c0-3,4.2-6.7,7.3-8.7c83.2-53.2,166.5-106.2,249.8-159.1
	c3.6-2.3,8.4-3.9,12.6-3.9c56.7-0.2,113.3-0.1,170-0.1C455.6,202.4,456.8,203,460.7,204.1z"/>
</svg>
